<?xml version="1.0" standalone="no"?>
<!DOCTYPE svg PUBLIC "-//W3C//DTD SVG 20010904//EN"
 "http://www.w3.org/TR/2001/REC-SVG-20010904/DTD/svg10.dtd">
<svg version="1.0" xmlns="http://www.w3.org/2000/svg"
 width="500.000000pt" height="500.000000pt" viewBox="0 0 500.000000 500.000000"
 preserveAspectRatio="xMidYMid meet">
<metadata>
Created by potrace 1.14, written by Peter Selinger 2001-2017
</metadata>
<g transform="translate(0.000000,500.000000) scale(0.100000,-0.100000)"
fill="#000000" stroke="none">
<path d="M4355 4587 c-89 -30 -147 -72 -195 -144 -63 -93 -60 4 -60 -1814 l0
-1657 173 -276 c94 -152 174 -276 177 -276 5 1 24 30 220 343 l130 209 0 1662
c0 1829 4 1715 -61 1810 -62 93 -153 144 -270 151 -47 3 -89 0 -114 -8z m165
-207 c60 -31 80 -78 80 -190 l0 -90 -150 0 -150 0 0 90 c0 70 4 99 19 128 39
75 124 101 201 62z m80 -3314 c0 -19 -10 -51 -22 -72 -51 -87 -123 -194 -130
-191 -4 1 -37 49 -74 107 -47 74 -68 118 -72 148 l-5 42 152 0 151 0 0 -34z"/>
<path d="M1950 4387 c-14 -7 -41 -19 -60 -27 -19 -7 -77 -33 -127 -57 -51 -24
-95 -43 -98 -43 -3 0 -34 -13 -68 -29 -34 -16 -267 -120 -517 -231 -250 -111
-479 -213 -508 -226 -29 -13 -79 -35 -112 -49 -33 -14 -86 -37 -117 -51 -199
-91 -219 -101 -231 -128 -25 -55 -10 -96 49 -140 l39 -30 0 -349 0 -349 -39
-39 c-45 -45 -66 -108 -56 -166 11 -68 171 -363 197 -363 11 0 104 154 150
249 52 107 58 165 21 233 -14 26 -37 55 -49 63 l-24 15 0 281 0 281 28 -18
c15 -9 54 -37 87 -61 33 -24 110 -79 170 -123 l110 -79 5 247 c5 223 7 250 25
280 10 17 22 32 25 32 4 0 16 9 28 21 78 72 349 134 687 156 223 15 902 8
1015 -11 14 -2 52 -7 85 -10 200 -21 419 -89 477 -149 53 -56 53 -56 58 -318
l5 -247 280 199 c154 110 287 205 295 212 8 7 29 21 45 31 80 51 98 125 43
175 -11 11 -190 95 -397 187 -207 91 -401 178 -431 191 -403 183 -1024 453
-1042 453 -13 0 -34 -6 -48 -13z"/>
<path d="M1648 3495 c-2 -1 -39 -5 -83 -9 -246 -17 -432 -49 -532 -91 l-33
-14 0 -229 0 -230 28 -10 c106 -42 334 -81 577 -99 203 -15 861 -7 917 12 7 2
41 6 75 10 53 5 213 32 292 49 13 3 43 13 67 22 l44 17 0 229 0 229 -35 15
c-49 20 -139 43 -215 54 -36 5 -74 12 -86 14 -11 2 -56 7 -100 11 -43 4 -95 9
-114 12 -38 5 -796 13 -802 8z"/>
<path d="M975 2680 c-238 -57 -380 -226 -374 -445 6 -203 145 -360 374 -419
53 -14 226 -15 1452 -16 990 0 1398 3 1416 11 27 12 57 58 57 88 0 49 -50 101
-97 101 -27 0 -59 37 -79 90 -25 69 -27 230 -4 304 20 63 53 106 81 106 48 0
99 51 99 99 0 33 -20 67 -50 84 -25 15 -74 17 -453 17 -413 0 -427 -1 -533
-24 -96 -22 -163 -33 -309 -51 -227 -27 -848 -27 -1108 1 -123 13 -301 42
-334 55 -13 5 -23 6 -23 4 0 -2 -10 -1 -22 4 -15 5 -48 2 -93 -9z"/>
<path d="M1039 1596 c-2 -2 -23 -6 -46 -9 -59 -9 -156 -50 -211 -91 -134 -99
-184 -202 -179 -370 3 -75 8 -101 32 -151 50 -106 178 -212 302 -249 12 -4 32
-10 45 -14 40 -12 2830 -14 2859 -2 28 12 59 58 59 89 0 49 -50 101 -97 101
-27 0 -59 37 -79 90 -25 66 -25 259 -1 320 22 53 54 90 78 90 48 0 99 51 99
99 0 33 -20 67 -50 84 -26 16 -137 17 -1418 17 -764 0 -1391 -2 -1393 -4z"/>
</g>
</svg>
